<svg xmlns="http://www.w3.org/2000/svg" viewBox="0 0 500 400" width="500" height="400">
  <defs>
    <linearGradient id="grad1" x1="0%" y1="0%" x2="100%" y2="100%">
      <stop offset="0%" style="stop-color:#667eea;stop-opacity:1" />
      <stop offset="100%" style="stop-color:#764ba2;stop-opacity:1" />
    </linearGradient>
  </defs>
  
  <!-- Background Circle -->
  <circle cx="250" cy="200" r="150" fill="url(#grad1)" opacity="0.1"/>
  
  <!-- Medical Cross -->
  <g transform="translate(250, 200)">
    <rect x="-60" y="-15" width="120" height="30" fill="url(#grad1)" rx="5"/>
    <rect x="-15" y="-60" width="30" height="120" fill="url(#grad1)" rx="5"/>
  </g>
  
  <!-- AI Brain Icon -->
  <g transform="translate(250, 200)">
    <path d="M-40,-30 Q-50,-30 -50,-20 L-50,20 Q-50,30 -40,30 L40,30 Q50,30 50,20 L50,-20 Q50,-30 40,-30 Z" 
          fill="none" stroke="url(#grad1)" stroke-width="3" opacity="0.8"/>
    
    <!-- Brain pattern -->
    <path d="M-30,-20 Q-20,-25 -10,-20 Q0,-25 10,-20 Q20,-25 30,-20" 
          fill="none" stroke="url(#grad1)" stroke-width="2" opacity="0.6"/>
    <path d="M-30,-10 Q-20,-15 -10,-10 Q0,-15 10,-10 Q20,-15 30,-10" 
          fill="none" stroke="url(#grad1)" stroke-width="2" opacity="0.6"/>
    <path d="M-30,0 Q-20,-5 -10,0 Q0,-5 10,0 Q20,-5 30,0" 
          fill="none" stroke="url(#grad1)" stroke-width="2" opacity="0.6"/>
    <path d="M-30,10 Q-20,5 -10,10 Q0,5 10,10 Q20,5 30,10" 
          fill="none" stroke="url(#grad1)" stroke-width="2" opacity="0.6"/>
  </g>
  
  <!-- Decorative elements -->
  <circle cx="150" cy="100" r="3" fill="url(#grad1)" opacity="0.4"/>
  <circle cx="350" cy="100" r="3" fill="url(#grad1)" opacity="0.4"/>
  <circle cx="150" cy="300" r="3" fill="url(#grad1)" opacity="0.4"/>
  <circle cx="350" cy="300" r="3" fill="url(#grad1)" opacity="0.4"/>
  
  <!-- DNA Helix -->
  <g transform="translate(100, 200)">
    <path d="M0,-50 Q10,-40 0,-30 Q-10,-20 0,-10 Q10,0 0,10 Q-10,20 0,30 Q10,40 0,50" 
          fill="none" stroke="url(#grad1)" stroke-width="2" opacity="0.5"/>
    <path d="M0,-50 Q-10,-40 0,-30 Q10,-20 0,-10 Q-10,0 0,10 Q10,20 0,30 Q-10,40 0,50" 
          fill="none" stroke="url(#grad1)" stroke-width="2" opacity="0.5"/>
  </g>
  
  <!-- Microscope Icon -->
  <g transform="translate(400, 200)">
    <ellipse cx="0" cy="30" rx="25" ry="5" fill="url(#grad1)" opacity="0.3"/>
    <rect x="-2" y="-30" width="4" height="50" fill="url(#grad1)" opacity="0.8"/>
    <rect x="-10" y="-35" width="20" height="8" fill="url(#grad1)" opacity="0.8" rx="4"/>
    <circle cx="0" cy="-40" r="8" fill="url(#grad1)" opacity="0.8"/>
    <rect x="-15" y="25" width="30" height="5" fill="url(#grad1)" opacity="0.8"/>
  </g>
</svg>